<?xml version="1.0" encoding="utf-8"?>
<!-- Generator: Adobe Illustrator 24.1.0, SVG Export Plug-In . SVG Version: 6.00 Build 0)  -->
<svg version="1.1" id="Layer_1" xmlns="http://www.w3.org/2000/svg" xmlns:xlink="http://www.w3.org/1999/xlink" x="0px" y="0px"
	 viewBox="0 0 335.7 52.3" style="enable-background:new 0 0 335.7 52.3;" xml:space="preserve">
<circle cx="9.7" cy="4.4" r="1.6"/>
<circle cx="9.7" cy="10.1" r="1.6"/>
<circle cx="9.7" cy="15.7" r="1.6"/>
<circle cx="9.7" cy="24.7" r="1.6"/>
<circle cx="4" cy="30.7" r="1.6"/>
<circle cx="4" cy="41.7" r="1.6"/>
<circle cx="9.7" cy="41.7" r="1.6"/>
<circle cx="15.4" cy="41.7" r="1.6"/>
<circle cx="21.1" cy="41.7" r="1.6"/>
<circle cx="15.4" cy="15.7" r="1.6"/>
<circle cx="15.4" cy="24.7" r="1.6"/>
<circle cx="21.1" cy="4.4" r="1.6"/>
<circle cx="21.1" cy="10.1" r="1.6"/>
<circle cx="26.8" cy="4.4" r="1.6"/>
<circle cx="26.8" cy="10.1" r="1.6"/>
<circle cx="9.7" cy="47.7" r="1.6"/>
<circle cx="15.4" cy="47.7" r="1.6"/>
<circle cx="26.8" cy="24.7" r="1.6"/>
<circle cx="21.1" cy="30.7" r="1.6"/>
<circle cx="26.8" cy="41.7" r="1.6"/>
<circle cx="32.5" cy="4.4" r="1.6"/>
<circle cx="32.5" cy="24.7" r="1.6"/>
<circle cx="32.5" cy="41.7" r="1.6"/>
<circle cx="32.5" cy="47.7" r="1.6"/>
<circle cx="38.2" cy="47.7" r="1.6"/>
<circle cx="38.2" cy="4.4" r="1.6"/>
<circle cx="38.2" cy="41.7" r="1.6"/>
<circle cx="38.2" cy="15.7" r="1.6"/>
<circle cx="43.9" cy="4.4" r="1.6"/>
<circle cx="43.9" cy="10.1" r="1.6"/>
<circle cx="43.9" cy="24.7" r="1.6"/>
<circle cx="43.9" cy="41.7" r="1.6"/>
<circle cx="49.6" cy="4.4" r="1.6"/>
<circle cx="49.6" cy="10.1" r="1.6"/>
<circle cx="49.6" cy="24.7" r="1.6"/>
<circle cx="49.6" cy="15.7" r="1.6"/>
<circle cx="49.6" cy="47.7" r="1.6"/>
<circle cx="49.6" cy="41.7" r="1.6"/>
<circle cx="55.3" cy="4.4" r="1.6"/>
<circle cx="55.3" cy="24.7" r="1.6"/>
<circle cx="55.3" cy="15.7" r="1.6"/>
<circle cx="55.3" cy="41.7" r="1.6"/>
<circle cx="66.6" cy="4.4" r="1.6"/>
<circle cx="78" cy="4.4" r="1.6"/>
<circle cx="83.7" cy="10.1" r="1.6"/>
<circle cx="89.4" cy="10.1" r="1.6"/>
<circle cx="66.6" cy="15.7" r="1.6"/>
<circle cx="72.3" cy="15.7" r="1.6"/>
<circle cx="78" cy="15.7" r="1.6"/>
<circle cx="89.4" cy="15.7" r="1.6"/>
<circle cx="60.9" cy="30.7" r="1.6"/>
<circle cx="66.6" cy="30.7" r="1.6"/>
<circle cx="72.3" cy="30.7" r="1.6"/>
<circle cx="83.7" cy="30.7" r="1.6"/>
<circle cx="89.4" cy="30.7" r="1.6"/>
<circle cx="60.9" cy="41.7" r="1.6"/>
<circle cx="66.6" cy="41.7" r="1.6"/>
<circle cx="72.3" cy="41.7" r="1.6"/>
<circle cx="78" cy="41.7" r="1.6"/>
<circle cx="83.7" cy="41.7" r="1.6"/>
<circle cx="89.4" cy="41.7" r="1.6"/>
<circle cx="72.3" cy="47.7" r="1.6"/>
<circle cx="78" cy="47.7" r="1.6"/>
<circle cx="83.7" cy="47.7" r="1.6"/>
<circle cx="4" cy="20.3" r="1.3"/>
<circle cx="9.7" cy="20.3" r="1.3"/>
<circle cx="15.4" cy="20.3" r="1.3"/>
<circle cx="21.1" cy="20.3" r="1.3"/>
<circle cx="26.8" cy="20.3" r="1.3"/>
<circle cx="32.5" cy="20.3" r="1.3"/>
<circle cx="38.2" cy="20.3" r="1.3"/>
<circle cx="43.9" cy="20.3" r="1.3"/>
<circle cx="49.6" cy="20.3" r="1.3"/>
<circle cx="55.3" cy="20.3" r="1.3"/>
<circle cx="60.9" cy="20.3" r="1.3"/>
<circle cx="66.6" cy="20.3" r="1.3"/>
<circle cx="72.3" cy="20.3" r="1.3"/>
<circle cx="78" cy="20.3" r="1.3"/>
<circle cx="83.7" cy="20.3" r="1.3"/>
<circle cx="89.4" cy="20.3" r="1.3"/>
<g>
	<path d="M108.2,28.6V2.8h17.7c3.5,0,5.8,0.1,6.8,0.2c2.8,0.4,4.6,1.4,5.5,3c0.7,1.2,1,3.4,1,6.5c0,3.2-0.4,5.4-1.1,6.7
		c-0.7,1.2-1.9,2-3.5,2.5c-1.2,0.3-2.8,0.5-4.8,0.6c-0.9,0-2.2,0-3.8,0h-9.9v6.3L108.2,28.6L108.2,28.6z M116.1,15.8h9.8
		c1.6,0,2.6,0,2.9-0.1c1.2-0.1,1.9-0.4,2.2-1.1c0.2-0.4,0.3-1.2,0.3-2.2c0-1-0.1-1.7-0.3-2.1c-0.3-0.6-1.1-0.9-2.1-1
		c-0.3,0-1.3-0.1-2.9-0.1h-9.8L116.1,15.8L116.1,15.8z"/>
	<path d="M161.5,2.4c5.4,0,9.2,0.1,11.3,0.4c3,0.4,4.9,1.8,5.5,4.3c0.5,1.7,0.7,4.5,0.7,8.6c0,4-0.2,6.9-0.7,8.6
		c-0.7,2.5-2.5,3.9-5.5,4.3c-2.1,0.3-5.9,0.4-11.5,0.4c-5.6,0-9.4-0.1-11.5-0.4c-3-0.4-4.9-1.8-5.5-4.3c-0.5-1.7-0.7-4.5-0.7-8.6
		c0-4,0.2-6.9,0.7-8.6c0.7-2.5,2.5-3.9,5.5-4.3C151.9,2.5,155.8,2.4,161.5,2.4z M161,9.1c-3.9,0-6.3,0.1-7.2,0.3
		c-1,0.3-1.7,0.9-2,1.8c-0.3,0.9-0.4,2.6-0.4,5.1c0,1.6,0.1,2.8,0.2,3.5c0.3,1.3,1.3,2.1,2.9,2.2c1.2,0.2,3.4,0.2,6.8,0.2
		s5.6-0.1,6.8-0.2c1.6-0.2,2.5-0.9,2.8-2.2c0.2-0.7,0.3-1.8,0.3-3.3c0-1.9-0.1-3.2-0.2-3.9c-0.2-1.3-0.6-2.2-1.2-2.6
		c-0.6-0.4-1.8-0.6-3.6-0.7C165.5,9.1,163.8,9.1,161,9.1z"/>
	<path d="M183.3,2.8h8.3V22h18.3v6.6h-26.6V2.8z"/>
	<path d="M214.1,20h7.6c0,1.3,0.2,2.1,0.8,2.5c0.3,0.2,0.6,0.3,0.9,0.4c0.4,0.1,1,0.1,1.9,0.1c0.4,0,1.9,0,4.3,0
		c3.4,0,5.3,0,5.8-0.1c1-0.1,1.6-0.2,2-0.4c0.4-0.3,0.7-0.9,0.7-1.9c0-0.7-0.1-1.1-0.4-1.4c-0.4-0.4-1.3-0.6-2.7-0.6
		c-1,0-3-0.1-6.2-0.2c-3.2-0.2-5.3-0.2-6.3-0.3c-2.5-0.1-4.2-0.4-5.3-0.9c-1.3-0.6-2.2-1.7-2.6-3.3c-0.2-0.9-0.3-2-0.3-3.4
		c0-2.9,0.6-5,1.7-6.2c0.8-0.9,2.1-1.5,3.8-1.8c1.5-0.3,5.2-0.4,10.9-0.4c3.7,0,6.4,0.1,7.9,0.3c2,0.3,3.5,0.8,4.4,1.5
		c1.2,1,1.8,2.8,1.8,5.3c0,0.3,0,0.7,0,1.3h-7.6c0-0.6-0.1-1-0.1-1.3c-0.2-0.7-0.8-1.1-1.7-1.2c-0.9-0.1-3-0.1-6.3-0.1
		c-3.3,0-5.3,0.1-5.9,0.3c-0.7,0.2-1,0.8-1,1.8c0,0.9,0.4,1.5,1.1,1.7c0.6,0.2,3.4,0.3,8.3,0.5c4.5,0.1,7.3,0.3,8.6,0.5
		c1.2,0.2,2.2,0.5,3,0.9s1.3,0.9,1.8,1.6c0.7,1,1,2.7,1,4.9c0,2.5-0.3,4.4-1,5.6c-0.7,1.2-1.7,2-3.2,2.4c-1.5,0.4-5.5,0.6-12.1,0.6
		c-4,0-6.9-0.1-8.7-0.3c-2.2-0.3-3.7-0.7-4.7-1.5c-1-0.8-1.6-1.9-1.8-3.3c-0.1-0.7-0.2-1.5-0.2-2.5L214.1,20L214.1,20z"/>
	<path d="M250.2,2.8h7.9v9.4h4.3l10.2-9.5h12l-14.9,12.8l16.2,13.1h-11.9l-11.5-9.9H258v9.9h-7.9L250.2,2.8L250.2,2.8z"/>
	<path d="M289.7,2.8h8.3v25.8h-8.3V2.8z"/>
	<path d="M303.8,2.8h28.6v6.1h-20.8v3.7h19.8v5.7h-19.8v4.1h21v6.2h-28.7L303.8,2.8L303.8,2.8z"/>
</g>
<g>
	<path d="M108,35.9h1.8v5.7h2.3l8.6-5.7h3.1l-9.8,6.5l10.3,6.8h-3.1l-9.1-6h-2.3v6H108L108,35.9L108,35.9z"/>
	<path d="M141.9,35.8c2.3,0,3.9,0.1,4.8,0.2c0.9,0.1,1.6,0.4,2,0.8c0.3,0.3,0.5,0.6,0.6,0.9c0.1,0.4,0.2,0.9,0.3,1.5
		c0.1,0.8,0.1,1.9,0.1,3.2c0,1.6-0.1,2.9-0.2,3.7c-0.2,0.8-0.4,1.4-0.8,1.8c-0.4,0.4-1,0.7-1.9,0.8c-0.9,0.2-2.3,0.2-4.4,0.2
		c-1,0-2.1,0-3.3,0c-1.2,0-2-0.1-2.4-0.1c-0.7-0.1-1.2-0.2-1.6-0.3c-0.4-0.1-0.7-0.4-1-0.7c-0.4-0.4-0.7-1-0.8-1.7
		c-0.1-0.7-0.2-2-0.2-3.8c0-2.1,0.1-3.6,0.4-4.5c0.3-1,1.1-1.7,2.4-1.8C137.2,35.9,139.2,35.8,141.9,35.8z M140.9,37.4
		c-1.8,0-3.2,0.1-4.1,0.2c-0.5,0.1-0.9,0.2-1.1,0.4c-0.2,0.2-0.4,0.5-0.5,1c-0.1,0.7-0.2,1.8-0.2,3.2c0,1.5,0,2.5,0.1,3.2
		c0.1,0.7,0.2,1.1,0.4,1.3c0.2,0.2,0.4,0.3,0.7,0.4c0.3,0.1,0.8,0.1,1.5,0.2c1.1,0.1,2.4,0.1,3.9,0.1c2.1,0,3.7-0.1,4.7-0.3
		c0.8-0.1,1.2-0.6,1.4-1.3c0.1-0.8,0.2-2,0.2-3.4c0-1.7-0.1-3-0.2-3.7c-0.1-0.7-0.6-1.2-1.5-1.3c-0.5-0.1-1.1-0.1-1.7-0.2
		C143.9,37.4,142.7,37.4,140.9,37.4z"/>
	<path d="M160.4,35.9h3.5l7.2,11.2l7.1-11.2h3.5v13.2h-1.8V37.5h-0.7l-7.4,11.6h-1.4l-7.5-11.6h-0.8v11.6h-1.8L160.4,35.9
		L160.4,35.9z"/>
	<path d="M192.5,49.1V35.9h8.4c2.2,0,3.5,0.1,4,0.2c0.4,0.1,0.8,0.2,1.2,0.5c0.4,0.2,0.6,0.5,0.8,0.9c0.3,0.6,0.4,1.4,0.4,2.6
		c0,0.9-0.1,1.6-0.2,2.1c-0.2,0.5-0.4,0.9-0.8,1.2c-0.4,0.3-0.7,0.5-1.1,0.6c-0.4,0.1-1,0.2-1.8,0.2c-0.3,0-1.1,0-2.5,0h-6.6v5
		L192.5,49.1L192.5,49.1z M194.2,42.6h6.6c1.6,0,2.6,0,3-0.1c0.4,0,0.7-0.2,1-0.4c0.2-0.2,0.3-0.4,0.4-0.7c0.1-0.3,0.1-0.8,0.1-1.4
		c0-0.7,0-1.2-0.1-1.4c-0.1-0.3-0.2-0.5-0.4-0.7c-0.3-0.2-0.6-0.3-1-0.4c-0.4,0-1.4-0.1-3.1-0.1h-6.6L194.2,42.6L194.2,42.6z"/>
	<path d="M217.2,35.9h1.8v6.5c0,1.9,0,3.1,0.1,3.5c0.1,0.5,0.2,0.9,0.4,1.1s0.6,0.4,1.2,0.4c0.9,0.1,2.2,0.2,4,0.2
		c2.4,0,4-0.1,4.9-0.2c0.5-0.1,0.9-0.2,1.1-0.5c0.2-0.2,0.3-0.6,0.4-1.2c0-0.5,0.1-1.6,0.1-3.3v-6.5h1.8v6.5c0,1.8,0,3-0.1,3.7
		c-0.1,1.2-0.5,2-1.3,2.4c-0.5,0.3-1,0.4-1.6,0.5s-2.2,0.1-4.8,0.2c-2.2,0-3.6-0.1-4-0.1c-0.4,0-0.9-0.1-1.4-0.2
		c-0.9-0.2-1.5-0.7-1.9-1.5c-0.2-0.4-0.3-0.9-0.4-1.4c0-0.5-0.1-1.7-0.1-3.6L217.2,35.9L217.2,35.9z"/>
	<path d="M242.5,35.9h15v1.5h-6.6v11.7h-1.8V37.4h-6.6L242.5,35.9L242.5,35.9z"/>
	<path d="M267.3,49.1V35.9h13v1.5h-11.2v4h10.7V43h-10.7v4.5h11.2v1.5H267.3z"/>
	<path d="M290.4,49.1V35.9h8.2c2.2,0,3.7,0.1,4.3,0.2c1.1,0.1,1.8,0.6,2.3,1.5c0.3,0.6,0.4,1.3,0.4,2.4c0,0.8,0,1.3-0.1,1.7
		c-0.1,0.4-0.2,0.7-0.4,1c-0.3,0.4-0.9,0.6-1.6,0.8c0.6,0.1,1,0.3,1.4,0.7c0.3,0.3,0.4,0.6,0.5,1c0.1,0.4,0.1,1.1,0.1,2.2v1.9h-1.8
		v-1.3c0-1.1,0-1.8-0.1-2.2c-0.1-0.8-0.6-1.3-1.4-1.5c-0.3,0-0.6-0.1-0.9-0.1c-0.3,0-1.1,0-2.6,0h-6.5v5.1L290.4,49.1L290.4,49.1z
		 M292.2,42.5h6.5c1.7,0,2.8,0,3.3-0.1c0.5,0,0.9-0.2,1.2-0.4c0.5-0.3,0.7-1,0.7-2.2c0-1-0.2-1.7-0.6-1.9c-0.3-0.2-0.7-0.3-1.3-0.4
		c-0.6-0.1-1.7-0.1-3.3-0.1h-6.5L292.2,42.5L292.2,42.5z"/>
	<path d="M314.5,35.9h2.4l6.4,6.3l6.2-6.3h2.5l-7.8,7.8v5.4h-1.8v-5.4L314.5,35.9z"/>
</g>
</svg>
